<mxfile host="Electron" modified="2024-06-01T11:17:14.346Z" agent="Mozilla/5.0 (Windows NT 10.0; Win64; x64) AppleWebKit/537.36 (KHTML, like Gecko) draw.io/22.1.2 Chrome/114.0.5735.289 Electron/25.9.4 Safari/537.36" etag="9HxxiGj0wBb0VZbaZcbv" version="22.1.2" type="device">
  <diagram name="第 1 页" id="SAHKPxjK9V1qAOfatdbY">
    <mxGraphModel dx="3020" dy="2640" grid="1" gridSize="10" guides="1" tooltips="1" connect="1" arrows="1" fold="1" page="1" pageScale="1" pageWidth="827" pageHeight="1169" math="0" shadow="0">
      <root>
        <mxCell id="0" />
        <mxCell id="1" parent="0" />
        <mxCell id="b9sYkB1GpHUD2K_iO5PB-15" value="" style="rounded=1;whiteSpace=wrap;html=1;movable=1;resizable=1;rotatable=1;deletable=1;editable=1;locked=0;connectable=1;fillColor=#dae8fc;strokeColor=#6c8ebf;shadow=0;opacity=50;absoluteArcSize=1;arcSize=12;" vertex="1" parent="1">
          <mxGeometry x="10" y="180" width="430" height="370" as="geometry" />
        </mxCell>
        <mxCell id="b9sYkB1GpHUD2K_iO5PB-29" value="" style="rounded=1;whiteSpace=wrap;html=1;movable=1;resizable=1;rotatable=1;deletable=1;editable=1;locked=0;connectable=1;fillColor=#dae8fc;strokeColor=#6c8ebf;shadow=0;opacity=50;absoluteArcSize=1;arcSize=12;" vertex="1" parent="1">
          <mxGeometry x="520" y="180" width="410" height="370" as="geometry" />
        </mxCell>
        <mxCell id="b9sYkB1GpHUD2K_iO5PB-23" value="" style="rounded=1;whiteSpace=wrap;html=1;movable=1;resizable=1;rotatable=1;deletable=1;editable=1;locked=0;connectable=1;fillColor=#ffe6cc;strokeColor=#d79b00;shadow=0;opacity=50;arcSize=12;absoluteArcSize=1;" vertex="1" parent="1">
          <mxGeometry x="130" y="480" width="300" height="60" as="geometry" />
        </mxCell>
        <mxCell id="b9sYkB1GpHUD2K_iO5PB-19" value="" style="rounded=1;whiteSpace=wrap;html=1;movable=1;resizable=1;rotatable=1;deletable=1;editable=1;locked=0;connectable=1;fillColor=#ffe6cc;strokeColor=#d79b00;shadow=0;opacity=50;arcSize=12;absoluteArcSize=1;" vertex="1" parent="1">
          <mxGeometry x="130" y="270" width="300" height="110" as="geometry" />
        </mxCell>
        <mxCell id="b9sYkB1GpHUD2K_iO5PB-18" value="" style="rounded=1;whiteSpace=wrap;html=1;movable=1;resizable=1;rotatable=1;deletable=1;editable=1;locked=0;connectable=1;fillColor=#ffe6cc;strokeColor=#d79b00;shadow=0;opacity=50;absoluteArcSize=1;arcSize=12;" vertex="1" parent="1">
          <mxGeometry x="130" y="190" width="300" height="60" as="geometry" />
        </mxCell>
        <mxCell id="b9sYkB1GpHUD2K_iO5PB-1" value="&lt;span style=&quot;font-size: 19px;&quot;&gt;&lt;b&gt;&lt;font face=&quot;Lucida Console&quot;&gt;scene&lt;br&gt;&lt;/font&gt;&lt;/b&gt;&lt;/span&gt;" style="text;html=1;align=center;verticalAlign=middle;resizable=0;points=[];autosize=1;strokeColor=#6c8ebf;fillColor=#dae8fc;rounded=1;absoluteArcSize=1;arcSize=12;" vertex="1" parent="1">
          <mxGeometry x="20" y="190" width="80" height="40" as="geometry" />
        </mxCell>
        <mxCell id="b9sYkB1GpHUD2K_iO5PB-2" value="&lt;span style=&quot;font-size: 19px;&quot;&gt;&lt;b&gt;&lt;font face=&quot;Lucida Console&quot;&gt;0:object&lt;br&gt;&lt;/font&gt;&lt;/b&gt;&lt;/span&gt;" style="text;html=1;align=center;verticalAlign=middle;resizable=0;points=[];autosize=1;strokeColor=#d79b00;fillColor=#ffe6cc;rounded=1;absoluteArcSize=1;arcSize=12;" vertex="1" parent="1">
          <mxGeometry x="140" y="200" width="120" height="40" as="geometry" />
        </mxCell>
        <mxCell id="b9sYkB1GpHUD2K_iO5PB-4" value="&lt;span style=&quot;font-size: 19px;&quot;&gt;&lt;b&gt;&lt;font face=&quot;Lucida Console&quot;&gt;1:object&lt;br&gt;&lt;/font&gt;&lt;/b&gt;&lt;/span&gt;" style="text;html=1;align=center;verticalAlign=middle;resizable=0;points=[];autosize=1;strokeColor=#d79b00;fillColor=#ffe6cc;rounded=1;absoluteArcSize=1;arcSize=12;" vertex="1" parent="1">
          <mxGeometry x="140" y="280" width="120" height="40" as="geometry" />
        </mxCell>
        <mxCell id="b9sYkB1GpHUD2K_iO5PB-5" value="&lt;span style=&quot;font-size: 19px;&quot;&gt;&lt;font style=&quot;&quot; face=&quot;Lucida Console&quot;&gt;&lt;b&gt;&lt;u&gt;3:object&lt;/u&gt;&lt;/b&gt;&lt;br&gt;&lt;/font&gt;&lt;/span&gt;" style="text;html=1;align=center;verticalAlign=middle;resizable=0;points=[];autosize=1;strokeColor=#9673a6;fillColor=#e1d5e7;rounded=1;absoluteArcSize=1;arcSize=12;" vertex="1" parent="1">
          <mxGeometry x="140" y="490" width="120" height="40" as="geometry" />
        </mxCell>
        <mxCell id="b9sYkB1GpHUD2K_iO5PB-6" value="&lt;span style=&quot;font-size: 19px;&quot;&gt;&lt;b&gt;&lt;font face=&quot;Lucida Console&quot;&gt;0:geometry&lt;br&gt;&lt;/font&gt;&lt;/b&gt;&lt;/span&gt;" style="text;html=1;align=center;verticalAlign=middle;resizable=0;points=[];autosize=1;strokeColor=#82b366;fillColor=#d5e8d4;rounded=1;absoluteArcSize=1;arcSize=12;" vertex="1" parent="1">
          <mxGeometry x="280" y="200" width="140" height="40" as="geometry" />
        </mxCell>
        <mxCell id="b9sYkB1GpHUD2K_iO5PB-20" value="&lt;span style=&quot;font-size: 19px;&quot;&gt;&lt;b&gt;&lt;font face=&quot;Lucida Console&quot;&gt;0:geometry&lt;br&gt;&lt;/font&gt;&lt;/b&gt;&lt;/span&gt;" style="text;html=1;align=center;verticalAlign=middle;resizable=0;points=[];autosize=1;strokeColor=#82b366;fillColor=#d5e8d4;rounded=1;absoluteArcSize=1;arcSize=12;" vertex="1" parent="1">
          <mxGeometry x="280" y="280" width="140" height="40" as="geometry" />
        </mxCell>
        <mxCell id="b9sYkB1GpHUD2K_iO5PB-22" value="&lt;span style=&quot;font-size: 19px;&quot;&gt;&lt;b&gt;&lt;font face=&quot;Lucida Console&quot;&gt;1:geometry&lt;br&gt;&lt;/font&gt;&lt;/b&gt;&lt;/span&gt;" style="text;html=1;align=center;verticalAlign=middle;resizable=0;points=[];autosize=1;strokeColor=#82b366;fillColor=#d5e8d4;rounded=1;absoluteArcSize=1;arcSize=12;" vertex="1" parent="1">
          <mxGeometry x="280" y="330" width="140" height="40" as="geometry" />
        </mxCell>
        <mxCell id="b9sYkB1GpHUD2K_iO5PB-24" value="&lt;span style=&quot;font-size: 19px;&quot;&gt;&lt;b&gt;&lt;font face=&quot;Lucida Console&quot;&gt;0:geometry&lt;br&gt;&lt;/font&gt;&lt;/b&gt;&lt;/span&gt;" style="text;html=1;align=center;verticalAlign=middle;resizable=0;points=[];autosize=1;strokeColor=#82b366;fillColor=#d5e8d4;rounded=1;absoluteArcSize=1;arcSize=12;" vertex="1" parent="1">
          <mxGeometry x="280" y="490" width="140" height="40" as="geometry" />
        </mxCell>
        <mxCell id="b9sYkB1GpHUD2K_iO5PB-25" value="&lt;span style=&quot;font-size: 19px;&quot;&gt;&lt;b&gt;&lt;font face=&quot;Lucida Console&quot;&gt;scene visitor&lt;br&gt;&lt;/font&gt;&lt;/b&gt;&lt;/span&gt;" style="text;html=1;align=center;verticalAlign=middle;resizable=0;points=[];autosize=1;strokeColor=#6c8ebf;fillColor=#dae8fc;rounded=1;absoluteArcSize=1;arcSize=12;" vertex="1" parent="1">
          <mxGeometry x="530" y="190" width="180" height="40" as="geometry" />
        </mxCell>
        <mxCell id="b9sYkB1GpHUD2K_iO5PB-26" value="&lt;span style=&quot;font-size: 19px;&quot;&gt;&lt;b&gt;&lt;font face=&quot;Lucida Console&quot;&gt;(0,0):geometry&lt;br&gt;&lt;/font&gt;&lt;/b&gt;&lt;/span&gt;" style="text;html=1;align=center;verticalAlign=middle;resizable=0;points=[];autosize=1;strokeColor=#82b366;fillColor=#d5e8d4;rounded=1;absoluteArcSize=1;arcSize=12;" vertex="1" parent="1">
          <mxGeometry x="730" y="290" width="190" height="40" as="geometry" />
        </mxCell>
        <mxCell id="b9sYkB1GpHUD2K_iO5PB-27" value="&lt;span style=&quot;font-size: 19px;&quot;&gt;&lt;b&gt;&lt;font face=&quot;Lucida Console&quot;&gt;(1,0):geometry&lt;br&gt;&lt;/font&gt;&lt;/b&gt;&lt;/span&gt;" style="text;html=1;align=center;verticalAlign=middle;resizable=0;points=[];autosize=1;strokeColor=#82b366;fillColor=#d5e8d4;rounded=1;absoluteArcSize=1;arcSize=12;" vertex="1" parent="1">
          <mxGeometry x="730" y="340" width="190" height="40" as="geometry" />
        </mxCell>
        <mxCell id="b9sYkB1GpHUD2K_iO5PB-28" value="&lt;span style=&quot;font-size: 19px;&quot;&gt;&lt;b&gt;&lt;font face=&quot;Lucida Console&quot;&gt;(1,1):geometry&lt;br&gt;&lt;/font&gt;&lt;/b&gt;&lt;/span&gt;" style="text;html=1;align=center;verticalAlign=middle;resizable=0;points=[];autosize=1;strokeColor=#82b366;fillColor=#d5e8d4;rounded=1;absoluteArcSize=1;arcSize=12;" vertex="1" parent="1">
          <mxGeometry x="730" y="390" width="190" height="40" as="geometry" />
        </mxCell>
        <mxCell id="b9sYkB1GpHUD2K_iO5PB-30" value="&lt;span style=&quot;font-size: 19px;&quot;&gt;&lt;b&gt;&lt;font face=&quot;Lucida Console&quot;&gt;(3,0):geometry&lt;br&gt;&lt;/font&gt;&lt;/b&gt;&lt;/span&gt;" style="text;html=1;align=center;verticalAlign=middle;resizable=0;points=[];autosize=1;strokeColor=#9673a6;fillColor=#e1d5e7;rounded=1;absoluteArcSize=1;arcSize=12;" vertex="1" parent="1">
          <mxGeometry x="530" y="290" width="190" height="40" as="geometry" />
        </mxCell>
        <mxCell id="b9sYkB1GpHUD2K_iO5PB-35" value="" style="rounded=1;whiteSpace=wrap;html=1;movable=1;resizable=1;rotatable=1;deletable=1;editable=1;locked=0;connectable=1;fillColor=#dae8fc;strokeColor=#6c8ebf;shadow=0;opacity=50;absoluteArcSize=1;arcSize=12;" vertex="1" parent="1">
          <mxGeometry x="10" y="-150" width="430" height="290" as="geometry" />
        </mxCell>
        <mxCell id="b9sYkB1GpHUD2K_iO5PB-36" value="" style="rounded=1;whiteSpace=wrap;html=1;movable=1;resizable=1;rotatable=1;deletable=1;editable=1;locked=0;connectable=1;fillColor=#ffe6cc;strokeColor=#d79b00;shadow=0;opacity=50;absoluteArcSize=1;arcSize=12;" vertex="1" parent="1">
          <mxGeometry x="130" y="70" width="300" height="60" as="geometry" />
        </mxCell>
        <mxCell id="b9sYkB1GpHUD2K_iO5PB-37" value="&lt;span style=&quot;font-size: 19px;&quot;&gt;&lt;b&gt;&lt;font face=&quot;Lucida Console&quot;&gt;0:geometry&lt;br&gt;&lt;/font&gt;&lt;/b&gt;&lt;/span&gt;" style="text;html=1;align=center;verticalAlign=middle;resizable=0;points=[];autosize=1;strokeColor=#82b366;fillColor=#d5e8d4;rounded=1;absoluteArcSize=1;arcSize=12;" vertex="1" parent="1">
          <mxGeometry x="280" y="80" width="140" height="40" as="geometry" />
        </mxCell>
        <mxCell id="b9sYkB1GpHUD2K_iO5PB-38" value="" style="rounded=1;whiteSpace=wrap;html=1;movable=1;resizable=1;rotatable=1;deletable=1;editable=1;locked=0;connectable=1;fillColor=#dae8fc;strokeColor=#6c8ebf;shadow=0;opacity=50;absoluteArcSize=1;arcSize=12;" vertex="1" parent="1">
          <mxGeometry x="520" y="-150" width="410" height="290" as="geometry" />
        </mxCell>
        <mxCell id="b9sYkB1GpHUD2K_iO5PB-40" value="" style="rounded=1;whiteSpace=wrap;html=1;movable=1;resizable=1;rotatable=1;deletable=1;editable=1;locked=0;connectable=1;fillColor=#ffe6cc;strokeColor=#d79b00;shadow=0;opacity=50;arcSize=12;absoluteArcSize=1;" vertex="1" parent="1">
          <mxGeometry x="130" y="-60" width="300" height="110" as="geometry" />
        </mxCell>
        <mxCell id="b9sYkB1GpHUD2K_iO5PB-41" value="" style="rounded=1;whiteSpace=wrap;html=1;movable=1;resizable=1;rotatable=1;deletable=1;editable=1;locked=0;connectable=1;fillColor=#ffe6cc;strokeColor=#d79b00;shadow=0;opacity=50;absoluteArcSize=1;arcSize=12;" vertex="1" parent="1">
          <mxGeometry x="130" y="-140" width="300" height="60" as="geometry" />
        </mxCell>
        <mxCell id="b9sYkB1GpHUD2K_iO5PB-42" value="&lt;span style=&quot;font-size: 19px;&quot;&gt;&lt;b&gt;&lt;font face=&quot;Lucida Console&quot;&gt;scene&lt;br&gt;&lt;/font&gt;&lt;/b&gt;&lt;/span&gt;" style="text;html=1;align=center;verticalAlign=middle;resizable=0;points=[];autosize=1;strokeColor=#6c8ebf;fillColor=#dae8fc;rounded=1;absoluteArcSize=1;arcSize=12;" vertex="1" parent="1">
          <mxGeometry x="20" y="-140" width="80" height="40" as="geometry" />
        </mxCell>
        <mxCell id="b9sYkB1GpHUD2K_iO5PB-43" value="&lt;span style=&quot;font-size: 19px;&quot;&gt;&lt;b&gt;&lt;font face=&quot;Lucida Console&quot;&gt;0:object&lt;br&gt;&lt;/font&gt;&lt;/b&gt;&lt;/span&gt;" style="text;html=1;align=center;verticalAlign=middle;resizable=0;points=[];autosize=1;strokeColor=#d79b00;fillColor=#ffe6cc;rounded=1;absoluteArcSize=1;arcSize=12;" vertex="1" parent="1">
          <mxGeometry x="140" y="-130" width="120" height="40" as="geometry" />
        </mxCell>
        <mxCell id="b9sYkB1GpHUD2K_iO5PB-44" value="&lt;span style=&quot;font-size: 19px;&quot;&gt;&lt;b&gt;&lt;font face=&quot;Lucida Console&quot;&gt;1:object&lt;br&gt;&lt;/font&gt;&lt;/b&gt;&lt;/span&gt;" style="text;html=1;align=center;verticalAlign=middle;resizable=0;points=[];autosize=1;strokeColor=#d79b00;fillColor=#ffe6cc;rounded=1;absoluteArcSize=1;arcSize=12;" vertex="1" parent="1">
          <mxGeometry x="140" y="-50" width="120" height="40" as="geometry" />
        </mxCell>
        <mxCell id="b9sYkB1GpHUD2K_iO5PB-46" value="&lt;span style=&quot;font-size: 19px;&quot;&gt;&lt;b&gt;&lt;font face=&quot;Lucida Console&quot;&gt;0:geometry&lt;br&gt;&lt;/font&gt;&lt;/b&gt;&lt;/span&gt;" style="text;html=1;align=center;verticalAlign=middle;resizable=0;points=[];autosize=1;strokeColor=#82b366;fillColor=#d5e8d4;rounded=1;absoluteArcSize=1;arcSize=12;" vertex="1" parent="1">
          <mxGeometry x="280" y="-130" width="140" height="40" as="geometry" />
        </mxCell>
        <mxCell id="b9sYkB1GpHUD2K_iO5PB-47" value="&lt;span style=&quot;font-size: 19px;&quot;&gt;&lt;b&gt;&lt;font face=&quot;Lucida Console&quot;&gt;0:geometry&lt;br&gt;&lt;/font&gt;&lt;/b&gt;&lt;/span&gt;" style="text;html=1;align=center;verticalAlign=middle;resizable=0;points=[];autosize=1;strokeColor=#82b366;fillColor=#d5e8d4;rounded=1;absoluteArcSize=1;arcSize=12;" vertex="1" parent="1">
          <mxGeometry x="280" y="-50" width="140" height="40" as="geometry" />
        </mxCell>
        <mxCell id="b9sYkB1GpHUD2K_iO5PB-48" value="&lt;span style=&quot;font-size: 19px;&quot;&gt;&lt;b&gt;&lt;font face=&quot;Lucida Console&quot;&gt;2:object&lt;br&gt;&lt;/font&gt;&lt;/b&gt;&lt;/span&gt;" style="text;html=1;align=center;verticalAlign=middle;resizable=0;points=[];autosize=1;strokeColor=#d79b00;fillColor=#ffe6cc;rounded=1;absoluteArcSize=1;arcSize=12;" vertex="1" parent="1">
          <mxGeometry x="140" y="80" width="120" height="40" as="geometry" />
        </mxCell>
        <mxCell id="b9sYkB1GpHUD2K_iO5PB-49" value="&lt;span style=&quot;font-size: 19px;&quot;&gt;&lt;b&gt;&lt;font face=&quot;Lucida Console&quot;&gt;1:geometry&lt;br&gt;&lt;/font&gt;&lt;/b&gt;&lt;/span&gt;" style="text;html=1;align=center;verticalAlign=middle;resizable=0;points=[];autosize=1;strokeColor=#82b366;fillColor=#d5e8d4;rounded=1;absoluteArcSize=1;arcSize=12;" vertex="1" parent="1">
          <mxGeometry x="280" width="140" height="40" as="geometry" />
        </mxCell>
        <mxCell id="b9sYkB1GpHUD2K_iO5PB-51" value="&lt;span style=&quot;font-size: 19px;&quot;&gt;&lt;b&gt;&lt;font face=&quot;Lucida Console&quot;&gt;scene visitor&lt;br&gt;&lt;/font&gt;&lt;/b&gt;&lt;/span&gt;" style="text;html=1;align=center;verticalAlign=middle;resizable=0;points=[];autosize=1;strokeColor=#6c8ebf;fillColor=#dae8fc;rounded=1;absoluteArcSize=1;arcSize=12;" vertex="1" parent="1">
          <mxGeometry x="535" y="-140" width="180" height="40" as="geometry" />
        </mxCell>
        <mxCell id="b9sYkB1GpHUD2K_iO5PB-52" value="&lt;span style=&quot;font-size: 19px;&quot;&gt;&lt;b&gt;&lt;font face=&quot;Lucida Console&quot;&gt;(0,0):geometry&lt;br&gt;&lt;/font&gt;&lt;/b&gt;&lt;/span&gt;" style="text;html=1;align=center;verticalAlign=middle;resizable=0;points=[];autosize=1;strokeColor=#82b366;fillColor=#d5e8d4;rounded=1;absoluteArcSize=1;arcSize=12;" vertex="1" parent="1">
          <mxGeometry x="730" y="-80" width="190" height="40" as="geometry" />
        </mxCell>
        <mxCell id="b9sYkB1GpHUD2K_iO5PB-53" value="&lt;span style=&quot;font-size: 19px;&quot;&gt;&lt;b&gt;&lt;font face=&quot;Lucida Console&quot;&gt;(1,0):geometry&lt;br&gt;&lt;/font&gt;&lt;/b&gt;&lt;/span&gt;" style="text;html=1;align=center;verticalAlign=middle;resizable=0;points=[];autosize=1;strokeColor=#82b366;fillColor=#d5e8d4;rounded=1;absoluteArcSize=1;arcSize=12;" vertex="1" parent="1">
          <mxGeometry x="730" y="-30" width="190" height="40" as="geometry" />
        </mxCell>
        <mxCell id="b9sYkB1GpHUD2K_iO5PB-54" value="&lt;span style=&quot;font-size: 19px;&quot;&gt;&lt;b&gt;&lt;font face=&quot;Lucida Console&quot;&gt;(1,1):geometry&lt;br&gt;&lt;/font&gt;&lt;/b&gt;&lt;/span&gt;" style="text;html=1;align=center;verticalAlign=middle;resizable=0;points=[];autosize=1;strokeColor=#82b366;fillColor=#d5e8d4;rounded=1;absoluteArcSize=1;arcSize=12;" vertex="1" parent="1">
          <mxGeometry x="730" y="20" width="190" height="40" as="geometry" />
        </mxCell>
        <mxCell id="b9sYkB1GpHUD2K_iO5PB-56" value="&lt;span style=&quot;font-size: 19px;&quot;&gt;&lt;b&gt;&lt;font face=&quot;Lucida Console&quot;&gt;(2,0):geometry&lt;br&gt;&lt;/font&gt;&lt;/b&gt;&lt;/span&gt;" style="text;html=1;align=center;verticalAlign=middle;resizable=0;points=[];autosize=1;strokeColor=#82b366;fillColor=#d5e8d4;rounded=1;absoluteArcSize=1;arcSize=12;" vertex="1" parent="1">
          <mxGeometry x="730" y="70" width="190" height="40" as="geometry" />
        </mxCell>
        <mxCell id="b9sYkB1GpHUD2K_iO5PB-58" value="" style="rounded=1;whiteSpace=wrap;html=1;movable=1;resizable=1;rotatable=1;deletable=1;editable=1;locked=0;connectable=1;fillColor=#dae8fc;strokeColor=#6c8ebf;shadow=0;opacity=50;absoluteArcSize=1;arcSize=12;" vertex="1" parent="1">
          <mxGeometry x="10" y="610" width="430" height="370" as="geometry" />
        </mxCell>
        <mxCell id="b9sYkB1GpHUD2K_iO5PB-59" value="" style="rounded=1;whiteSpace=wrap;html=1;movable=1;resizable=1;rotatable=1;deletable=1;editable=1;locked=0;connectable=1;fillColor=#ffe6cc;strokeColor=#d79b00;shadow=0;opacity=50;absoluteArcSize=1;arcSize=12;" vertex="1" parent="1">
          <mxGeometry x="130" y="830" width="300" height="60" as="geometry" />
        </mxCell>
        <mxCell id="b9sYkB1GpHUD2K_iO5PB-60" value="&lt;span style=&quot;font-size: 19px;&quot;&gt;&lt;b&gt;&lt;font face=&quot;Lucida Console&quot;&gt;0:geometry&lt;br&gt;&lt;/font&gt;&lt;/b&gt;&lt;/span&gt;" style="text;html=1;align=center;verticalAlign=middle;resizable=0;points=[];autosize=1;strokeColor=#82b366;fillColor=#d5e8d4;rounded=1;absoluteArcSize=1;arcSize=12;" vertex="1" parent="1">
          <mxGeometry x="280" y="840" width="140" height="40" as="geometry" />
        </mxCell>
        <mxCell id="b9sYkB1GpHUD2K_iO5PB-61" value="" style="rounded=1;whiteSpace=wrap;html=1;movable=1;resizable=1;rotatable=1;deletable=1;editable=1;locked=0;connectable=1;fillColor=#dae8fc;strokeColor=#6c8ebf;shadow=0;opacity=50;absoluteArcSize=1;arcSize=12;" vertex="1" parent="1">
          <mxGeometry x="520" y="610" width="410" height="370" as="geometry" />
        </mxCell>
        <mxCell id="b9sYkB1GpHUD2K_iO5PB-62" value="" style="rounded=1;whiteSpace=wrap;html=1;movable=1;resizable=1;rotatable=1;deletable=1;editable=1;locked=0;connectable=1;fillColor=#ffe6cc;strokeColor=#d79b00;shadow=0;opacity=50;arcSize=12;absoluteArcSize=1;" vertex="1" parent="1">
          <mxGeometry x="130" y="910" width="300" height="60" as="geometry" />
        </mxCell>
        <mxCell id="b9sYkB1GpHUD2K_iO5PB-63" value="" style="rounded=1;whiteSpace=wrap;html=1;movable=1;resizable=1;rotatable=1;deletable=1;editable=1;locked=0;connectable=1;fillColor=#ffe6cc;strokeColor=#d79b00;shadow=0;opacity=50;arcSize=12;absoluteArcSize=1;" vertex="1" parent="1">
          <mxGeometry x="130" y="700" width="300" height="110" as="geometry" />
        </mxCell>
        <mxCell id="b9sYkB1GpHUD2K_iO5PB-64" value="" style="rounded=1;whiteSpace=wrap;html=1;movable=1;resizable=1;rotatable=1;deletable=1;editable=1;locked=0;connectable=1;fillColor=#ffe6cc;strokeColor=#d79b00;shadow=0;opacity=50;absoluteArcSize=1;arcSize=12;" vertex="1" parent="1">
          <mxGeometry x="130" y="620" width="300" height="60" as="geometry" />
        </mxCell>
        <mxCell id="b9sYkB1GpHUD2K_iO5PB-65" value="&lt;span style=&quot;font-size: 19px;&quot;&gt;&lt;b&gt;&lt;font face=&quot;Lucida Console&quot;&gt;scene&lt;br&gt;&lt;/font&gt;&lt;/b&gt;&lt;/span&gt;" style="text;html=1;align=center;verticalAlign=middle;resizable=0;points=[];autosize=1;strokeColor=#6c8ebf;fillColor=#dae8fc;rounded=1;absoluteArcSize=1;arcSize=12;" vertex="1" parent="1">
          <mxGeometry x="20" y="620" width="80" height="40" as="geometry" />
        </mxCell>
        <mxCell id="b9sYkB1GpHUD2K_iO5PB-66" value="&lt;span style=&quot;font-size: 19px;&quot;&gt;&lt;b&gt;&lt;font face=&quot;Lucida Console&quot;&gt;0:object&lt;br&gt;&lt;/font&gt;&lt;/b&gt;&lt;/span&gt;" style="text;html=1;align=center;verticalAlign=middle;resizable=0;points=[];autosize=1;strokeColor=#d79b00;fillColor=#ffe6cc;rounded=1;absoluteArcSize=1;arcSize=12;" vertex="1" parent="1">
          <mxGeometry x="140" y="630" width="120" height="40" as="geometry" />
        </mxCell>
        <mxCell id="b9sYkB1GpHUD2K_iO5PB-67" value="&lt;span style=&quot;font-size: 19px;&quot;&gt;&lt;b&gt;&lt;font face=&quot;Lucida Console&quot;&gt;1:object&lt;br&gt;&lt;/font&gt;&lt;/b&gt;&lt;/span&gt;" style="text;html=1;align=center;verticalAlign=middle;resizable=0;points=[];autosize=1;strokeColor=#d79b00;fillColor=#ffe6cc;rounded=1;absoluteArcSize=1;arcSize=12;" vertex="1" parent="1">
          <mxGeometry x="140" y="710" width="120" height="40" as="geometry" />
        </mxCell>
        <mxCell id="b9sYkB1GpHUD2K_iO5PB-68" value="&lt;span style=&quot;font-size: 19px;&quot;&gt;&lt;b&gt;&lt;font face=&quot;Lucida Console&quot;&gt;3:object&lt;br&gt;&lt;/font&gt;&lt;/b&gt;&lt;/span&gt;" style="text;html=1;align=center;verticalAlign=middle;resizable=0;points=[];autosize=1;strokeColor=#d79b00;fillColor=#ffe6cc;rounded=1;absoluteArcSize=1;arcSize=12;" vertex="1" parent="1">
          <mxGeometry x="140" y="920" width="120" height="40" as="geometry" />
        </mxCell>
        <mxCell id="b9sYkB1GpHUD2K_iO5PB-69" value="&lt;span style=&quot;font-size: 19px;&quot;&gt;&lt;b&gt;&lt;font face=&quot;Lucida Console&quot;&gt;0:geometry&lt;br&gt;&lt;/font&gt;&lt;/b&gt;&lt;/span&gt;" style="text;html=1;align=center;verticalAlign=middle;resizable=0;points=[];autosize=1;strokeColor=#82b366;fillColor=#d5e8d4;rounded=1;absoluteArcSize=1;arcSize=12;" vertex="1" parent="1">
          <mxGeometry x="280" y="630" width="140" height="40" as="geometry" />
        </mxCell>
        <mxCell id="b9sYkB1GpHUD2K_iO5PB-70" value="&lt;span style=&quot;font-size: 19px;&quot;&gt;&lt;b&gt;&lt;font face=&quot;Lucida Console&quot;&gt;0:geometry&lt;br&gt;&lt;/font&gt;&lt;/b&gt;&lt;/span&gt;" style="text;html=1;align=center;verticalAlign=middle;resizable=0;points=[];autosize=1;strokeColor=#82b366;fillColor=#d5e8d4;rounded=1;absoluteArcSize=1;arcSize=12;" vertex="1" parent="1">
          <mxGeometry x="280" y="710" width="140" height="40" as="geometry" />
        </mxCell>
        <mxCell id="b9sYkB1GpHUD2K_iO5PB-71" value="&lt;span style=&quot;font-size: 19px;&quot;&gt;&lt;b&gt;&lt;font face=&quot;Lucida Console&quot;&gt;&lt;strike&gt;2:object&lt;/strike&gt;&lt;br&gt;&lt;/font&gt;&lt;/b&gt;&lt;/span&gt;" style="text;html=1;align=center;verticalAlign=middle;resizable=0;points=[];autosize=1;strokeColor=#b85450;fillColor=#f8cecc;rounded=1;absoluteArcSize=1;arcSize=12;" vertex="1" parent="1">
          <mxGeometry x="140" y="840" width="120" height="40" as="geometry" />
        </mxCell>
        <mxCell id="b9sYkB1GpHUD2K_iO5PB-72" value="&lt;span style=&quot;font-size: 19px;&quot;&gt;&lt;b&gt;&lt;font face=&quot;Lucida Console&quot;&gt;1:geometry&lt;br&gt;&lt;/font&gt;&lt;/b&gt;&lt;/span&gt;" style="text;html=1;align=center;verticalAlign=middle;resizable=0;points=[];autosize=1;strokeColor=#82b366;fillColor=#d5e8d4;rounded=1;absoluteArcSize=1;arcSize=12;" vertex="1" parent="1">
          <mxGeometry x="280" y="760" width="140" height="40" as="geometry" />
        </mxCell>
        <mxCell id="b9sYkB1GpHUD2K_iO5PB-73" value="&lt;span style=&quot;font-size: 19px;&quot;&gt;&lt;b&gt;&lt;font face=&quot;Lucida Console&quot;&gt;0:geometry&lt;br&gt;&lt;/font&gt;&lt;/b&gt;&lt;/span&gt;" style="text;html=1;align=center;verticalAlign=middle;resizable=0;points=[];autosize=1;strokeColor=#82b366;fillColor=#d5e8d4;rounded=1;absoluteArcSize=1;arcSize=12;" vertex="1" parent="1">
          <mxGeometry x="280" y="920" width="140" height="40" as="geometry" />
        </mxCell>
        <mxCell id="b9sYkB1GpHUD2K_iO5PB-74" value="&lt;span style=&quot;font-size: 19px;&quot;&gt;&lt;b&gt;&lt;font face=&quot;Lucida Console&quot;&gt;scene visitor&lt;br&gt;&lt;/font&gt;&lt;/b&gt;&lt;/span&gt;" style="text;html=1;align=center;verticalAlign=middle;resizable=0;points=[];autosize=1;strokeColor=#6c8ebf;fillColor=#dae8fc;rounded=1;absoluteArcSize=1;arcSize=12;" vertex="1" parent="1">
          <mxGeometry x="530" y="620" width="180" height="40" as="geometry" />
        </mxCell>
        <mxCell id="b9sYkB1GpHUD2K_iO5PB-75" value="&lt;span style=&quot;font-size: 19px;&quot;&gt;&lt;b&gt;&lt;font face=&quot;Lucida Console&quot;&gt;(0,0):geometry&lt;br&gt;&lt;/font&gt;&lt;/b&gt;&lt;/span&gt;" style="text;html=1;align=center;verticalAlign=middle;resizable=0;points=[];autosize=1;strokeColor=#82b366;fillColor=#d5e8d4;rounded=1;absoluteArcSize=1;arcSize=12;" vertex="1" parent="1">
          <mxGeometry x="730" y="690" width="190" height="40" as="geometry" />
        </mxCell>
        <mxCell id="b9sYkB1GpHUD2K_iO5PB-76" value="&lt;span style=&quot;font-size: 19px;&quot;&gt;&lt;b&gt;&lt;font face=&quot;Lucida Console&quot;&gt;(1,0):geometry&lt;br&gt;&lt;/font&gt;&lt;/b&gt;&lt;/span&gt;" style="text;html=1;align=center;verticalAlign=middle;resizable=0;points=[];autosize=1;strokeColor=#82b366;fillColor=#d5e8d4;rounded=1;absoluteArcSize=1;arcSize=12;" vertex="1" parent="1">
          <mxGeometry x="730" y="740" width="190" height="40" as="geometry" />
        </mxCell>
        <mxCell id="b9sYkB1GpHUD2K_iO5PB-77" value="&lt;span style=&quot;font-size: 19px;&quot;&gt;&lt;b&gt;&lt;font face=&quot;Lucida Console&quot;&gt;(1,1):geometry&lt;br&gt;&lt;/font&gt;&lt;/b&gt;&lt;/span&gt;" style="text;html=1;align=center;verticalAlign=middle;resizable=0;points=[];autosize=1;strokeColor=#82b366;fillColor=#d5e8d4;rounded=1;absoluteArcSize=1;arcSize=12;" vertex="1" parent="1">
          <mxGeometry x="730" y="790" width="190" height="40" as="geometry" />
        </mxCell>
        <mxCell id="b9sYkB1GpHUD2K_iO5PB-78" value="&lt;span style=&quot;font-size: 19px;&quot;&gt;&lt;b&gt;&lt;font face=&quot;Lucida Console&quot;&gt;(3,0):geometry&lt;br&gt;&lt;/font&gt;&lt;/b&gt;&lt;/span&gt;" style="text;html=1;align=center;verticalAlign=middle;resizable=0;points=[];autosize=1;strokeColor=#82b366;fillColor=#d5e8d4;rounded=1;absoluteArcSize=1;arcSize=12;" vertex="1" parent="1">
          <mxGeometry x="730" y="890" width="190" height="40" as="geometry" />
        </mxCell>
        <mxCell id="b9sYkB1GpHUD2K_iO5PB-79" value="&lt;span style=&quot;font-size: 19px;&quot;&gt;&lt;b&gt;&lt;font face=&quot;Lucida Console&quot;&gt;&lt;strike&gt;(2,0):geometry&lt;/strike&gt;&lt;br&gt;&lt;/font&gt;&lt;/b&gt;&lt;/span&gt;" style="text;html=1;align=center;verticalAlign=middle;resizable=0;points=[];autosize=1;strokeColor=#b85450;fillColor=#f8cecc;rounded=1;absoluteArcSize=1;arcSize=12;" vertex="1" parent="1">
          <mxGeometry x="730" y="840" width="190" height="40" as="geometry" />
        </mxCell>
        <mxCell id="b9sYkB1GpHUD2K_iO5PB-80" value="&lt;span style=&quot;font-size: 19px;&quot;&gt;&lt;b&gt;&lt;font face=&quot;Lucida Console&quot;&gt;pending&lt;br&gt;&lt;/font&gt;&lt;/b&gt;&lt;/span&gt;" style="text;html=1;align=center;verticalAlign=middle;resizable=0;points=[];autosize=1;strokeColor=#666666;fillColor=#f5f5f5;rounded=1;absoluteArcSize=1;arcSize=12;fontColor=#333333;" vertex="1" parent="1">
          <mxGeometry x="620" y="840" width="110" height="40" as="geometry" />
        </mxCell>
        <mxCell id="b9sYkB1GpHUD2K_iO5PB-81" value="" style="rounded=1;whiteSpace=wrap;html=1;movable=1;resizable=1;rotatable=1;deletable=1;editable=1;locked=0;connectable=1;fillColor=#ffe6cc;strokeColor=#d79b00;shadow=0;opacity=50;absoluteArcSize=1;arcSize=12;" vertex="1" parent="1">
          <mxGeometry x="130" y="400" width="300" height="60" as="geometry" />
        </mxCell>
        <mxCell id="b9sYkB1GpHUD2K_iO5PB-82" value="&lt;span style=&quot;font-size: 19px;&quot;&gt;&lt;b&gt;&lt;font face=&quot;Lucida Console&quot;&gt;0:geometry&lt;br&gt;&lt;/font&gt;&lt;/b&gt;&lt;/span&gt;" style="text;html=1;align=center;verticalAlign=middle;resizable=0;points=[];autosize=1;strokeColor=#82b366;fillColor=#d5e8d4;rounded=1;absoluteArcSize=1;arcSize=12;" vertex="1" parent="1">
          <mxGeometry x="280" y="410" width="140" height="40" as="geometry" />
        </mxCell>
        <mxCell id="b9sYkB1GpHUD2K_iO5PB-83" value="&lt;span style=&quot;font-size: 19px;&quot;&gt;&lt;b&gt;&lt;font face=&quot;Lucida Console&quot;&gt;2:object&lt;br&gt;&lt;/font&gt;&lt;/b&gt;&lt;/span&gt;" style="text;html=1;align=center;verticalAlign=middle;resizable=0;points=[];autosize=1;strokeColor=#d79b00;fillColor=#ffe6cc;rounded=1;absoluteArcSize=1;arcSize=12;" vertex="1" parent="1">
          <mxGeometry x="140" y="410" width="120" height="40" as="geometry" />
        </mxCell>
        <mxCell id="b9sYkB1GpHUD2K_iO5PB-84" value="&lt;span style=&quot;font-size: 19px;&quot;&gt;&lt;b&gt;&lt;font face=&quot;Lucida Console&quot;&gt;(2,0):geometry&lt;br&gt;&lt;/font&gt;&lt;/b&gt;&lt;/span&gt;" style="text;html=1;align=center;verticalAlign=middle;resizable=0;points=[];autosize=1;strokeColor=#82b366;fillColor=#d5e8d4;rounded=1;absoluteArcSize=1;arcSize=12;" vertex="1" parent="1">
          <mxGeometry x="730" y="440" width="190" height="40" as="geometry" />
        </mxCell>
        <mxCell id="b9sYkB1GpHUD2K_iO5PB-85" value="&lt;span style=&quot;font-size: 19px;&quot;&gt;&lt;b&gt;&lt;font face=&quot;Lucida Console&quot;&gt;pending&lt;br&gt;&lt;/font&gt;&lt;/b&gt;&lt;/span&gt;" style="text;html=1;align=center;verticalAlign=middle;resizable=0;points=[];autosize=1;strokeColor=#666666;fillColor=#f5f5f5;rounded=1;absoluteArcSize=1;arcSize=12;fontColor=#333333;" vertex="1" parent="1">
          <mxGeometry x="530" y="250" width="110" height="40" as="geometry" />
        </mxCell>
        <mxCell id="b9sYkB1GpHUD2K_iO5PB-87" value="&lt;span style=&quot;font-size: 19px;&quot;&gt;&lt;b&gt;&lt;font face=&quot;Lucida Console&quot;&gt;(0,0):geometry&lt;br&gt;&lt;/font&gt;&lt;/b&gt;&lt;/span&gt;" style="text;html=1;align=center;verticalAlign=middle;resizable=0;points=[];autosize=1;strokeColor=#82b366;fillColor=#d5e8d4;rounded=1;absoluteArcSize=1;arcSize=12;" vertex="1" parent="1">
          <mxGeometry x="1030" y="-80" width="190" height="40" as="geometry" />
        </mxCell>
        <mxCell id="b9sYkB1GpHUD2K_iO5PB-88" value="&lt;span style=&quot;font-size: 19px;&quot;&gt;&lt;b&gt;&lt;font face=&quot;Lucida Console&quot;&gt;(1,0):geometry&lt;br&gt;&lt;/font&gt;&lt;/b&gt;&lt;/span&gt;" style="text;html=1;align=center;verticalAlign=middle;resizable=0;points=[];autosize=1;strokeColor=#82b366;fillColor=#d5e8d4;rounded=1;absoluteArcSize=1;arcSize=12;" vertex="1" parent="1">
          <mxGeometry x="1030" y="-30" width="190" height="40" as="geometry" />
        </mxCell>
        <mxCell id="b9sYkB1GpHUD2K_iO5PB-89" value="&lt;span style=&quot;font-size: 19px;&quot;&gt;&lt;b&gt;&lt;font face=&quot;Lucida Console&quot;&gt;(1,1):geometry&lt;br&gt;&lt;/font&gt;&lt;/b&gt;&lt;/span&gt;" style="text;html=1;align=center;verticalAlign=middle;resizable=0;points=[];autosize=1;strokeColor=#82b366;fillColor=#d5e8d4;rounded=1;absoluteArcSize=1;arcSize=12;" vertex="1" parent="1">
          <mxGeometry x="1030" y="20" width="190" height="40" as="geometry" />
        </mxCell>
        <mxCell id="b9sYkB1GpHUD2K_iO5PB-90" value="&lt;span style=&quot;font-size: 19px;&quot;&gt;&lt;b&gt;&lt;font face=&quot;Lucida Console&quot;&gt;(2,0):geometry&lt;br&gt;&lt;/font&gt;&lt;/b&gt;&lt;/span&gt;" style="text;html=1;align=center;verticalAlign=middle;resizable=0;points=[];autosize=1;strokeColor=#82b366;fillColor=#d5e8d4;rounded=1;absoluteArcSize=1;arcSize=12;" vertex="1" parent="1">
          <mxGeometry x="1030" y="70" width="190" height="40" as="geometry" />
        </mxCell>
        <mxCell id="b9sYkB1GpHUD2K_iO5PB-91" value="" style="endArrow=oval;dashed=1;html=1;rounded=0;fillColor=#e1d5e7;strokeColor=#9673a6;strokeWidth=5;startArrow=oval;startFill=1;endFill=1;endSize=15;startSize=15;" edge="1" parent="1">
          <mxGeometry width="50" height="50" relative="1" as="geometry">
            <mxPoint x="-90" y="160" as="sourcePoint" />
            <mxPoint x="1370" y="160" as="targetPoint" />
          </mxGeometry>
        </mxCell>
      </root>
    </mxGraphModel>
  </diagram>
</mxfile>
